<mxfile host="app.diagrams.net" agent="Mozilla/5.0 (Macintosh; Intel Mac OS X 10_15_7) AppleWebKit/537.36 (KHTML, like Gecko) Chrome/136.0.0.0 Safari/537.36" version="27.0.6">
  <diagram id="C5RBs43oDa-KdzZeNtuy" name="Page-1">
    <mxGraphModel dx="925" dy="595" grid="1" gridSize="10" guides="1" tooltips="1" connect="1" arrows="1" fold="1" page="1" pageScale="1" pageWidth="827" pageHeight="1169" math="0" shadow="0">
      <root>
        <mxCell id="WIyWlLk6GJQsqaUBKTNV-0" />
        <mxCell id="WIyWlLk6GJQsqaUBKTNV-1" parent="WIyWlLk6GJQsqaUBKTNV-0" />
        <mxCell id="5yoJ0oaOs3mJgdB9JSAQ-9" style="edgeStyle=orthogonalEdgeStyle;rounded=0;orthogonalLoop=1;jettySize=auto;html=1;entryX=1;entryY=0.5;entryDx=0;entryDy=0;" edge="1" parent="WIyWlLk6GJQsqaUBKTNV-1" source="Bgh7VfDjB50sTkW0Ix46-0" target="Bgh7VfDjB50sTkW0Ix46-2">
          <mxGeometry relative="1" as="geometry">
            <mxPoint x="494" y="480" as="targetPoint" />
            <Array as="points">
              <mxPoint x="874" y="140" />
              <mxPoint x="874" y="500" />
            </Array>
          </mxGeometry>
        </mxCell>
        <mxCell id="5yoJ0oaOs3mJgdB9JSAQ-11" value="2.1 初审通过" style="edgeLabel;html=1;align=center;verticalAlign=middle;resizable=0;points=[];" vertex="1" connectable="0" parent="5yoJ0oaOs3mJgdB9JSAQ-9">
          <mxGeometry x="-0.7755" y="-1" relative="1" as="geometry">
            <mxPoint as="offset" />
          </mxGeometry>
        </mxCell>
        <mxCell id="5yoJ0oaOs3mJgdB9JSAQ-12" value="2.2 质押仓单-》预冻结" style="edgeLabel;html=1;align=center;verticalAlign=middle;resizable=0;points=[];" vertex="1" connectable="0" parent="5yoJ0oaOs3mJgdB9JSAQ-9">
          <mxGeometry x="-0.1469" relative="1" as="geometry">
            <mxPoint y="-9" as="offset" />
          </mxGeometry>
        </mxCell>
        <mxCell id="5yoJ0oaOs3mJgdB9JSAQ-16" value="2.3 推送信息" style="edgeLabel;html=1;align=center;verticalAlign=middle;resizable=0;points=[];" vertex="1" connectable="0" parent="5yoJ0oaOs3mJgdB9JSAQ-9">
          <mxGeometry x="0.7607" y="3" relative="1" as="geometry">
            <mxPoint x="13" y="-3" as="offset" />
          </mxGeometry>
        </mxCell>
        <mxCell id="5yoJ0oaOs3mJgdB9JSAQ-25" style="edgeStyle=orthogonalEdgeStyle;rounded=0;orthogonalLoop=1;jettySize=auto;html=1;entryX=0.75;entryY=0;entryDx=0;entryDy=0;" edge="1" parent="WIyWlLk6GJQsqaUBKTNV-1" source="Bgh7VfDjB50sTkW0Ix46-0" target="Bgh7VfDjB50sTkW0Ix46-3">
          <mxGeometry relative="1" as="geometry">
            <Array as="points">
              <mxPoint x="144" y="160" />
            </Array>
          </mxGeometry>
        </mxCell>
        <mxCell id="5yoJ0oaOs3mJgdB9JSAQ-26" value="5.3 推送合同审批结果" style="edgeLabel;html=1;align=center;verticalAlign=middle;resizable=0;points=[];" vertex="1" connectable="0" parent="5yoJ0oaOs3mJgdB9JSAQ-25">
          <mxGeometry x="0.5881" y="-1" relative="1" as="geometry">
            <mxPoint x="77" y="-24" as="offset" />
          </mxGeometry>
        </mxCell>
        <mxCell id="Bgh7VfDjB50sTkW0Ix46-0" value="水发供应链平台" style="rounded=0;whiteSpace=wrap;html=1;" parent="WIyWlLk6GJQsqaUBKTNV-1" vertex="1">
          <mxGeometry x="334" y="110" width="140" height="60" as="geometry" />
        </mxCell>
        <mxCell id="5yoJ0oaOs3mJgdB9JSAQ-3" style="edgeStyle=orthogonalEdgeStyle;rounded=0;orthogonalLoop=1;jettySize=auto;html=1;entryX=1;entryY=0.5;entryDx=0;entryDy=0;dashed=1;" edge="1" parent="WIyWlLk6GJQsqaUBKTNV-1" source="Bgh7VfDjB50sTkW0Ix46-1" target="5yoJ0oaOs3mJgdB9JSAQ-2">
          <mxGeometry relative="1" as="geometry" />
        </mxCell>
        <mxCell id="5yoJ0oaOs3mJgdB9JSAQ-6" value="控股" style="edgeLabel;html=1;align=center;verticalAlign=middle;resizable=0;points=[];" vertex="1" connectable="0" parent="5yoJ0oaOs3mJgdB9JSAQ-3">
          <mxGeometry x="0.0175" y="1" relative="1" as="geometry">
            <mxPoint as="offset" />
          </mxGeometry>
        </mxCell>
        <mxCell id="Bgh7VfDjB50sTkW0Ix46-1" value="水发农业集团有限公司" style="rounded=0;whiteSpace=wrap;html=1;" parent="WIyWlLk6GJQsqaUBKTNV-1" vertex="1">
          <mxGeometry x="434" y="18" width="130" height="60" as="geometry" />
        </mxCell>
        <mxCell id="5yoJ0oaOs3mJgdB9JSAQ-17" style="edgeStyle=orthogonalEdgeStyle;rounded=0;orthogonalLoop=1;jettySize=auto;html=1;entryX=0;entryY=0.5;entryDx=0;entryDy=0;" edge="1" parent="WIyWlLk6GJQsqaUBKTNV-1" source="Bgh7VfDjB50sTkW0Ix46-2" target="Bgh7VfDjB50sTkW0Ix46-3">
          <mxGeometry relative="1" as="geometry">
            <Array as="points">
              <mxPoint x="404" y="580" />
              <mxPoint x="34" y="580" />
              <mxPoint x="34" y="270" />
            </Array>
          </mxGeometry>
        </mxCell>
        <mxCell id="5yoJ0oaOs3mJgdB9JSAQ-18" value="4.1 确认背景企业" style="edgeLabel;html=1;align=center;verticalAlign=middle;resizable=0;points=[];" vertex="1" connectable="0" parent="5yoJ0oaOs3mJgdB9JSAQ-17">
          <mxGeometry x="-0.902" y="-1" relative="1" as="geometry">
            <mxPoint y="-12" as="offset" />
          </mxGeometry>
        </mxCell>
        <mxCell id="5yoJ0oaOs3mJgdB9JSAQ-19" value="4.2 征信授权" style="edgeLabel;html=1;align=center;verticalAlign=middle;resizable=0;points=[];" vertex="1" connectable="0" parent="5yoJ0oaOs3mJgdB9JSAQ-17">
          <mxGeometry x="-0.3084" y="-1" relative="1" as="geometry">
            <mxPoint as="offset" />
          </mxGeometry>
        </mxCell>
        <mxCell id="5yoJ0oaOs3mJgdB9JSAQ-20" value="4.3 业务审批" style="edgeLabel;html=1;align=center;verticalAlign=middle;resizable=0;points=[];" vertex="1" connectable="0" parent="5yoJ0oaOs3mJgdB9JSAQ-17">
          <mxGeometry x="0.5052" y="-2" relative="1" as="geometry">
            <mxPoint as="offset" />
          </mxGeometry>
        </mxCell>
        <mxCell id="5yoJ0oaOs3mJgdB9JSAQ-23" style="edgeStyle=orthogonalEdgeStyle;rounded=0;orthogonalLoop=1;jettySize=auto;html=1;entryX=1;entryY=0.75;entryDx=0;entryDy=0;" edge="1" parent="WIyWlLk6GJQsqaUBKTNV-1" source="Bgh7VfDjB50sTkW0Ix46-2" target="Bgh7VfDjB50sTkW0Ix46-0">
          <mxGeometry relative="1" as="geometry">
            <Array as="points">
              <mxPoint x="420" y="440" />
              <mxPoint x="810" y="440" />
              <mxPoint x="810" y="155" />
            </Array>
          </mxGeometry>
        </mxCell>
        <mxCell id="5yoJ0oaOs3mJgdB9JSAQ-24" value="5.2 推送合同审批结果" style="edgeLabel;html=1;align=center;verticalAlign=middle;resizable=0;points=[];" vertex="1" connectable="0" parent="5yoJ0oaOs3mJgdB9JSAQ-23">
          <mxGeometry x="-0.6058" y="-1" relative="1" as="geometry">
            <mxPoint as="offset" />
          </mxGeometry>
        </mxCell>
        <mxCell id="5yoJ0oaOs3mJgdB9JSAQ-30" style="edgeStyle=orthogonalEdgeStyle;rounded=0;orthogonalLoop=1;jettySize=auto;html=1;exitX=0.75;exitY=1;exitDx=0;exitDy=0;entryX=0.5;entryY=0;entryDx=0;entryDy=0;" edge="1" parent="WIyWlLk6GJQsqaUBKTNV-1" source="Bgh7VfDjB50sTkW0Ix46-2" target="5yoJ0oaOs3mJgdB9JSAQ-29">
          <mxGeometry relative="1" as="geometry">
            <Array as="points">
              <mxPoint x="434" y="580" />
              <mxPoint x="624" y="580" />
            </Array>
          </mxGeometry>
        </mxCell>
        <mxCell id="5yoJ0oaOs3mJgdB9JSAQ-31" value="6. 核实仓单" style="edgeLabel;html=1;align=center;verticalAlign=middle;resizable=0;points=[];" vertex="1" connectable="0" parent="5yoJ0oaOs3mJgdB9JSAQ-30">
          <mxGeometry x="-0.0343" relative="1" as="geometry">
            <mxPoint as="offset" />
          </mxGeometry>
        </mxCell>
        <mxCell id="5yoJ0oaOs3mJgdB9JSAQ-40" style="edgeStyle=orthogonalEdgeStyle;rounded=0;orthogonalLoop=1;jettySize=auto;html=1;entryX=1;entryY=0.25;entryDx=0;entryDy=0;" edge="1" parent="WIyWlLk6GJQsqaUBKTNV-1" source="Bgh7VfDjB50sTkW0Ix46-2" target="Bgh7VfDjB50sTkW0Ix46-3">
          <mxGeometry relative="1" as="geometry">
            <Array as="points">
              <mxPoint x="400" y="255" />
            </Array>
          </mxGeometry>
        </mxCell>
        <mxCell id="5yoJ0oaOs3mJgdB9JSAQ-41" value="9. 授信额度启用" style="edgeLabel;html=1;align=center;verticalAlign=middle;resizable=0;points=[];" vertex="1" connectable="0" parent="5yoJ0oaOs3mJgdB9JSAQ-40">
          <mxGeometry x="0.4471" relative="1" as="geometry">
            <mxPoint as="offset" />
          </mxGeometry>
        </mxCell>
        <mxCell id="Bgh7VfDjB50sTkW0Ix46-2" value="南京银行" style="whiteSpace=wrap;html=1;" parent="WIyWlLk6GJQsqaUBKTNV-1" vertex="1">
          <mxGeometry x="344" y="470" width="120" height="60" as="geometry" />
        </mxCell>
        <mxCell id="5yoJ0oaOs3mJgdB9JSAQ-7" style="edgeStyle=orthogonalEdgeStyle;rounded=0;orthogonalLoop=1;jettySize=auto;html=1;" edge="1" parent="WIyWlLk6GJQsqaUBKTNV-1" source="Bgh7VfDjB50sTkW0Ix46-3" target="Bgh7VfDjB50sTkW0Ix46-0">
          <mxGeometry relative="1" as="geometry">
            <mxPoint x="334" y="140" as="targetPoint" />
            <Array as="points">
              <mxPoint x="114" y="140" />
            </Array>
          </mxGeometry>
        </mxCell>
        <mxCell id="5yoJ0oaOs3mJgdB9JSAQ-8" value="1. 开立电子仓单" style="edgeLabel;html=1;align=center;verticalAlign=middle;resizable=0;points=[];" vertex="1" connectable="0" parent="5yoJ0oaOs3mJgdB9JSAQ-7">
          <mxGeometry x="0.0821" relative="1" as="geometry">
            <mxPoint as="offset" />
          </mxGeometry>
        </mxCell>
        <mxCell id="5yoJ0oaOs3mJgdB9JSAQ-13" style="edgeStyle=orthogonalEdgeStyle;rounded=0;orthogonalLoop=1;jettySize=auto;html=1;entryX=0;entryY=0.5;entryDx=0;entryDy=0;" edge="1" parent="WIyWlLk6GJQsqaUBKTNV-1" source="Bgh7VfDjB50sTkW0Ix46-3" target="Bgh7VfDjB50sTkW0Ix46-2">
          <mxGeometry relative="1" as="geometry">
            <Array as="points">
              <mxPoint x="114" y="500" />
            </Array>
          </mxGeometry>
        </mxCell>
        <mxCell id="5yoJ0oaOs3mJgdB9JSAQ-14" value="3. 跳转鑫微厅进行申请借款" style="edgeLabel;html=1;align=center;verticalAlign=middle;resizable=0;points=[];" vertex="1" connectable="0" parent="5yoJ0oaOs3mJgdB9JSAQ-13">
          <mxGeometry x="-0.1136" y="1" relative="1" as="geometry">
            <mxPoint x="102" y="9" as="offset" />
          </mxGeometry>
        </mxCell>
        <mxCell id="5yoJ0oaOs3mJgdB9JSAQ-38" style="edgeStyle=orthogonalEdgeStyle;rounded=0;orthogonalLoop=1;jettySize=auto;html=1;exitX=0.75;exitY=1;exitDx=0;exitDy=0;entryX=0.25;entryY=0;entryDx=0;entryDy=0;" edge="1" parent="WIyWlLk6GJQsqaUBKTNV-1" source="Bgh7VfDjB50sTkW0Ix46-3" target="Bgh7VfDjB50sTkW0Ix46-2">
          <mxGeometry relative="1" as="geometry">
            <Array as="points">
              <mxPoint x="144" y="440" />
              <mxPoint x="374" y="440" />
            </Array>
          </mxGeometry>
        </mxCell>
        <mxCell id="5yoJ0oaOs3mJgdB9JSAQ-39" value="5.1 仓单质押合同签约（不启用额度）" style="edgeLabel;html=1;align=center;verticalAlign=middle;resizable=0;points=[];" vertex="1" connectable="0" parent="5yoJ0oaOs3mJgdB9JSAQ-38">
          <mxGeometry x="-0.0723" relative="1" as="geometry">
            <mxPoint x="61" as="offset" />
          </mxGeometry>
        </mxCell>
        <mxCell id="Bgh7VfDjB50sTkW0Ix46-3" value="货主" style="whiteSpace=wrap;html=1;" parent="WIyWlLk6GJQsqaUBKTNV-1" vertex="1">
          <mxGeometry x="54" y="240" width="120" height="60" as="geometry" />
        </mxCell>
        <mxCell id="5yoJ0oaOs3mJgdB9JSAQ-4" style="edgeStyle=orthogonalEdgeStyle;rounded=0;orthogonalLoop=1;jettySize=auto;html=1;entryX=0.5;entryY=0;entryDx=0;entryDy=0;dashed=1;curved=1;" edge="1" parent="WIyWlLk6GJQsqaUBKTNV-1" source="5yoJ0oaOs3mJgdB9JSAQ-2" target="Bgh7VfDjB50sTkW0Ix46-0">
          <mxGeometry relative="1" as="geometry" />
        </mxCell>
        <mxCell id="5yoJ0oaOs3mJgdB9JSAQ-5" value="开发、运营" style="edgeLabel;html=1;align=center;verticalAlign=middle;resizable=0;points=[];" vertex="1" connectable="0" parent="5yoJ0oaOs3mJgdB9JSAQ-4">
          <mxGeometry x="0.0043" relative="1" as="geometry">
            <mxPoint as="offset" />
          </mxGeometry>
        </mxCell>
        <mxCell id="5yoJ0oaOs3mJgdB9JSAQ-2" value="水发大正科技服务有限公司" style="whiteSpace=wrap;html=1;" vertex="1" parent="WIyWlLk6GJQsqaUBKTNV-1">
          <mxGeometry x="244" y="18" width="120" height="60" as="geometry" />
        </mxCell>
        <mxCell id="5yoJ0oaOs3mJgdB9JSAQ-32" style="edgeStyle=orthogonalEdgeStyle;rounded=0;orthogonalLoop=1;jettySize=auto;html=1;exitX=0.75;exitY=0;exitDx=0;exitDy=0;entryX=1;entryY=0.75;entryDx=0;entryDy=0;" edge="1" parent="WIyWlLk6GJQsqaUBKTNV-1" source="5yoJ0oaOs3mJgdB9JSAQ-29" target="Bgh7VfDjB50sTkW0Ix46-2">
          <mxGeometry relative="1" as="geometry" />
        </mxCell>
        <mxCell id="5yoJ0oaOs3mJgdB9JSAQ-33" value="7.1 质押登记，并推送质押登记结果" style="edgeLabel;html=1;align=center;verticalAlign=middle;resizable=0;points=[];" vertex="1" connectable="0" parent="5yoJ0oaOs3mJgdB9JSAQ-32">
          <mxGeometry x="-0.5669" y="1" relative="1" as="geometry">
            <mxPoint as="offset" />
          </mxGeometry>
        </mxCell>
        <mxCell id="5yoJ0oaOs3mJgdB9JSAQ-34" style="edgeStyle=orthogonalEdgeStyle;rounded=0;orthogonalLoop=1;jettySize=auto;html=1;entryX=1;entryY=0.25;entryDx=0;entryDy=0;" edge="1" parent="WIyWlLk6GJQsqaUBKTNV-1" source="5yoJ0oaOs3mJgdB9JSAQ-29" target="Bgh7VfDjB50sTkW0Ix46-0">
          <mxGeometry relative="1" as="geometry">
            <Array as="points">
              <mxPoint x="960" y="630" />
              <mxPoint x="960" y="125" />
            </Array>
          </mxGeometry>
        </mxCell>
        <mxCell id="5yoJ0oaOs3mJgdB9JSAQ-35" value="7.2 质押登记，并推送质押登记结果" style="edgeLabel;html=1;align=center;verticalAlign=middle;resizable=0;points=[];" vertex="1" connectable="0" parent="5yoJ0oaOs3mJgdB9JSAQ-34">
          <mxGeometry x="-0.8305" y="2" relative="1" as="geometry">
            <mxPoint as="offset" />
          </mxGeometry>
        </mxCell>
        <mxCell id="5yoJ0oaOs3mJgdB9JSAQ-29" value="中登网" style="rounded=0;whiteSpace=wrap;html=1;" vertex="1" parent="WIyWlLk6GJQsqaUBKTNV-1">
          <mxGeometry x="564" y="600" width="120" height="60" as="geometry" />
        </mxCell>
        <mxCell id="5yoJ0oaOs3mJgdB9JSAQ-36" style="edgeStyle=orthogonalEdgeStyle;rounded=0;orthogonalLoop=1;jettySize=auto;html=1;exitX=0.75;exitY=1;exitDx=0;exitDy=0;" edge="1" parent="WIyWlLk6GJQsqaUBKTNV-1" source="5yoJ0oaOs3mJgdB9JSAQ-29" target="5yoJ0oaOs3mJgdB9JSAQ-29">
          <mxGeometry relative="1" as="geometry">
            <Array as="points">
              <mxPoint x="654" y="720" />
              <mxPoint x="624" y="720" />
            </Array>
          </mxGeometry>
        </mxCell>
        <mxCell id="5yoJ0oaOs3mJgdB9JSAQ-37" value="8. 完成电子仓单入库登记" style="edgeLabel;html=1;align=center;verticalAlign=middle;resizable=0;points=[];" vertex="1" connectable="0" parent="5yoJ0oaOs3mJgdB9JSAQ-36">
          <mxGeometry x="-0.0194" y="1" relative="1" as="geometry">
            <mxPoint as="offset" />
          </mxGeometry>
        </mxCell>
      </root>
    </mxGraphModel>
  </diagram>
</mxfile>
